<svg xmlns="http://www.w3.org/2000/svg" viewBox="0 0 502 315.928" id="lady-cooking-in-the-kitchen"><g data-name="Layer 2"><g data-name="Layer 1"><path fill="#50661a" d="M47.61877,287.15889A116.95415,116.95415,0,0,1,46.005,270.47774a123.01108,123.01108,0,0,1,.66082-16.76722,89.48447,89.48447,0,0,1,3.42838-16.42932,72.54761,72.54761,0,0,1,3.06018-7.82043,59.70186,59.70186,0,0,1,4.18759-7.26184,62.89756,62.89756,0,0,0-6.77447,15.22924c-.76938,2.67469-1.46323,5.37073-2.00281,8.10218q-.78909,4.1001-1.25949,8.25329a131.449,131.449,0,0,0-.807,16.68421q.03878,4.1812.323,8.358C46.998,281.60957,47.23431,284.39265,47.61877,287.15889Z"></path><path fill="#5e7c24" d="M47.61878,245.32239s-29.38216,3.70052-42.16928-8.90757c-9.4892-9.35633-.46339-25.45988,12.5413-22.55062C26.69714,215.81188,37.43568,223.55067,47.61878,245.32239Z"></path><path fill="#50661a" d="M47.61877,245.32234c-4.12451-1.25537-8.18411-2.72534-12.18035-4.35266q-5.99154-2.4483-11.74848-5.44238-2.86308-1.5174-5.61828-3.233a56.51257,56.51257,0,0,1-5.33573-3.689,39.85443,39.85443,0,0,1-4.80044-4.36646,19.32026,19.32026,0,0,1-3.52768-5.4104,19.1662,19.1662,0,0,0,3.75784,5.195,39.99129,39.99129,0,0,0,4.8706,4.18774,82.17359,82.17359,0,0,0,10.95469,6.74744c3.78482,2.03674,7.6976,3.83142,11.63885,5.5564q2.95784,1.29144,5.96033,2.48193C43.584,243.80977,45.59061,244.59419,47.61877,245.32234Z"></path><path fill="#50661a" d="M15.758 230.46516l.02874-4.33471c-.008-1.4408.00037-2.87928-.08157-4.313a37.684 37.684 0 00-.38086-4.2743l-.19934-1.04992c-.07086-.34937-.19373-.68128-.28558-1.02649a7.57712 7.57712 0 00-.38749-.99231 8.68422 8.68422 0 00-.57708-.90649 7.29944 7.29944 0 011.936 3.88061 29.11473 29.11473 0 01.53732 4.34155c.029 1.45508.03 2.90845-.06833 4.35681A36.45471 36.45471 0 0115.758 230.46516zM1.93005 230.46516c1.72709-.30066 3.43061-.54834 5.09577-.93188a15.316 15.316 0 002.41644-.76087 3.49284 3.49284 0 001.888-1.59082 3.03086 3.03086 0 01-1.65842 2.03821 9.85348 9.85348 0 01-2.49914.94031A15.88011 15.88011 0 011.93005 230.46516zM7.24194 237.99348a48.9434 48.9434 0 006.82074-1.371 12.80786 12.80786 0 003.12921-1.34241 4.47256 4.47256 0 002.08179-2.59362 4.05214 4.05214 0 01-1.79471 3.00634 10.42651 10.42651 0 01-3.22992 1.546A20.25248 20.25248 0 017.24194 237.99348zM23.67114 235.15816q.73454-2.15351 1.34928-4.32361c.39788-1.45069.79034-2.90186 1.04995-4.379a25.96446 25.96446 0 00.40213-8.94348 15.06327 15.06327 0 01.68662 4.50964 26.96673 26.96673 0 01-.45706 4.55664 35.6396 35.6396 0 01-1.21122 4.40466A28.09079 28.09079 0 0123.67114 235.15816zM19.27368 243.66023c.93674-.24585 1.843-.553 2.73081-.88147a15.24935 15.24935 0 002.54165-1.2074 9.35091 9.35091 0 002.14771-1.74218 7.58205 7.58205 0 001.34186-2.46375 5.45387 5.45387 0 01-.94492 2.77234 7.61828 7.61828 0 01-2.21347 1.98584 10.625 10.625 0 01-2.71841 1.13159A10.94531 10.94531 0 0119.27368 243.66023zM34.16183 224.12654a14.29659 14.29659 0 011.38147 3.84277 16.49509 16.49509 0 01.32276 4.10218 13.381 13.381 0 01-.86148 4.03039 12.091 12.091 0 01-2.08328 3.515 18.33985 18.33985 0 001.61489-3.677 14.65563 14.65563 0 00.68738-3.90527 18.86105 18.86105 0 00-.166-3.97925A24.14443 24.14443 0 0034.16183 224.12654zM32.262 245.32234c1.06791-.53528 2.1175-.99439 3.12439-1.53381a12.4462 12.4462 0 002.81913-1.94739 5.28987 5.28987 0 01-2.51688 2.516A8.20974 8.20974 0 0132.262 245.32234zM41.563 234.041a14.38561 14.38561 0 011.00931 4.56714 10.2651 10.2651 0 01-.11325 2.36389 4.54519 4.54519 0 01-.89606 2.18274 7.2009 7.2009 0 00.39648-2.23938 20.01977 20.01977 0 00-.03006-2.27112C41.85062 237.12227 41.66714 235.60249 41.563 234.041z"></path><path fill="#c4ce6e" d="M46.55087,245.17436S23.65817,226.388,24.01783,208.434c.2669-13.32346,18.165-17.84522,24.99628-6.40319C53.58747,209.691,55.35407,222.80905,46.55087,245.17436Z"></path><path fill="#8b9d36" d="M46.55087,245.17439A125.61672,125.61672,0,0,1,41.207,233.38606q-2.386-6.02307-4.17206-12.27222-.862-3.12872-1.50384-6.31689a53.839,53.839,0,0,1-.96878-6.429,39.90429,39.90429,0,0,1-.08252-6.50781,18.59913,18.59913,0,0,1,1.5892-6.27661,19.94551,19.94551,0,0,0-1.09988,6.30591,39.95836,39.95836,0,0,0,.358,6.39612,83.8197,83.8197,0,0,0,2.67,12.56018c1.10816,4.14648,2.497,8.21606,3.92649,12.27063q1.07249,3.04193,2.24987,6.04846C44.92645,241.18245,45.73965,243.176,46.55087,245.17439Z"></path><path fill="#8b9d36" d="M35.42639 211.82625c2.031-2.089 4.121-4.05628 6.11411-6.10926.99408-1.02612 1.953-2.07812 2.853-3.1748a18.31182 18.31182 0 001.21109-1.73462 7.4981 7.4981 0 00.48734-.93921 10.05266 10.05266 0 00.30661-1.02942 7.02265 7.02265 0 01-1.37009 4.15686 24.37474 24.37474 0 01-2.77044 3.41687A33.57392 33.57392 0 0135.42639 211.82625zM25.91693 201.78731c1.50449.94628 2.86511 1.97924 4.27869 2.91015a18.73153 18.73153 0 002.16241 1.24866 3.71674 3.71674 0 002.40732.40747 2.93988 2.93988 0 01-2.66629.32861 9.10754 9.10754 0 01-2.45312-1.15A13.047 13.047 0 0125.91693 201.78731zM24.10437 210.821c1.94489 1.34228 3.79431 2.72619 5.77414 3.85449a13.84889 13.84889 0 003.06662 1.36719 4.65462 4.65462 0 003.28635-.13636 3.95305 3.95305 0 01-3.445.90039 10.00017 10.00017 0 01-3.4035-1.2633 17.528 17.528 0 01-2.88584-2.10352A15.76461 15.76461 0 0124.10437 210.821zM37.46124 220.79854c1.35892-.68872 2.68375-1.40955 4.0047-2.12146 1.31092-.73084 2.615-1.46314 3.86789-2.27173a42.46691 42.46691 0 003.63718-2.5835 27.07952 27.07952 0 003.22769-3.12475 13.76458 13.76458 0 01-2.70673 3.70568 23.1952 23.1952 0 01-3.62207 2.84607A27.371 27.371 0 0137.46124 220.79854zM28.26462 223.453c.87362.44617 1.72671.86707 2.58407 1.255a17.61681 17.61681 0 002.60608.96509 10.16891 10.16891 0 002.68051.39416 8.65742 8.65742 0 002.725-.58215 5.05289 5.05289 0 01-2.649 1.35876 7.32887 7.32887 0 01-3.02527-.20825 9.88614 9.88614 0 01-2.70935-1.24512A9.254 9.254 0 0128.26462 223.453zM52.6846 220.8282a14.11922 14.11922 0 01-4.48129 6.837 15.65189 15.65189 0 01-1.694 1.22753c-.29913.17945-.61749.32789-.92447.49219a5.2669 5.2669 0 01-.956.42029 11.06383 11.06383 0 01-4.04337.77515 21.53569 21.53569 0 003.72128-1.486 16.56147 16.56147 0 003.25187-2.19287 22.14966 22.14966 0 002.77539-2.80566A30.01529 30.01529 0 0052.6846 220.8282zM35.99 234.02546c1.1965.28663 2.24786.69581 3.31876 1.04493a20.97427 20.97427 0 003.296.876 3.64782 3.64782 0 01-1.80307.39771 6.3334 6.3334 0 01-1.811-.32617A7.52861 7.52861 0 0137.357 235.226 5.43313 5.43313 0 0135.99 234.02546zM50.57654 233.01973a9.50535 9.50535 0 01-1.04367 2.12536 12.75275 12.75275 0 01-1.44858 1.87012 9.19017 9.19017 0 01-1.83991 1.53235 4.1458 4.1458 0 01-2.28439.73962 8.91229 8.91229 0 001.81491-1.36291c.543-.50952 1.07419-1.03662 1.5824-1.59485C48.40378 235.23921 49.39755 234.09028 50.57654 233.01973z"></path><path fill="#c4ce6e" d="M45.86288,276.64036s-29.59516,1.06406-41.20629-12.63469C-3.95991,253.84,6.46678,238.606,19.16,242.664,27.65784,245.38078,37.663,254.04687,45.86288,276.64036Z"></path><path fill="#8b9d36" d="M45.86288,276.64033a125.60627,125.60627,0,0,1-11.80722-5.30188c-3.84967-1.95788-7.59939-4.11572-11.24893-6.44018q-2.71663-1.77521-5.30758-3.74085a53.83068,53.83068,0,0,1-4.98063-4.17895,39.89572,39.89572,0,0,1-4.36834-4.82459,18.598,18.598,0,0,1-2.96192-5.75732,19.94592,19.94592,0,0,0,3.34824,5.45556,39.94972,39.94972,0,0,0,4.50088,4.55848,83.82492,83.82492,0,0,0,10.31339,7.65c3.57468,2.37549,7.309,4.50757,11.06372,6.60144q2.81708,1.57086,5.68933,3.0459C42.00339,274.72236,43.93225,275.67891,45.86288,276.64033Z"></path><path fill="#8b9d36" d="M15.45483 258.99959c.14032-2.91028.4054-5.76819.54126-8.62635.06623-1.42712.089-2.85046.03815-4.26819a18.32217 18.32217 0 00-.23993-2.10205 7.4936 7.4936 0 00-.2561-1.02661 10.04468 10.04468 0 00-.45136-.97461 7.02189 7.02189 0 011.72361 4.0232 24.3767 24.3767 0 01.18392 4.395A33.57494 33.57494 0 0115.45483 258.99959zM1.68207 257.7657c1.75412-.28613 3.45785-.412 5.13363-.64954a18.71288 18.71288 0 002.44754-.49475 3.71625 3.71625 0 002.07453-1.28747 2.94013 2.94013 0 01-1.78156 2.01074 9.10786 9.10786 0 01-2.60028.761A13.04445 13.04445 0 011.68207 257.7657zM6.301 265.738c2.3464-.28064 4.64877-.46692 6.87979-.931a13.84119 13.84119 0 003.20382-1.0044 4.6534 4.6534 0 002.37369-2.27685 3.95279 3.95279 0 01-1.98706 2.95471 10.00377 10.00377 0 01-3.38766 1.30518 17.52583 17.52583 0 01-3.55561.33252A15.75655 15.75655 0 016.301 265.738zM22.91769 264.37983c.56308-1.41564 1.07932-2.83276 1.59861-4.2406.49926-1.4154.99234-2.82739 1.39666-4.26269a42.47979 42.47979 0 001.01731-4.34375 27.0821 27.0821 0 00.35214-4.47864 13.76671 13.76671 0 01.42291 4.56946 23.19409 23.19409 0 01-.8323 4.53064A27.37161 27.37161 0 0122.91769 264.37983zM17.77914 272.45576c.95023-.24377 1.86835-.49267 2.76783-.76916a17.60233 17.60233 0 002.59256-1.001A10.16613 10.16613 0 0025.41 269.20735a8.65743 8.65743 0 001.6579-2.23962 5.05309 5.05309 0 01-1.087 2.7716 7.32775 7.32775 0 01-2.406 1.84583 9.88829 9.88829 0 01-2.85525.85937A9.25759 9.25759 0 0117.77914 272.45576zM34.35086 254.32832a14.11913 14.11913 0 011.16455 8.09131 15.65953 15.65953 0 01-.45779 2.04126c-.10553.33252-.246.65442-.36743.98071a5.25588 5.25588 0 01-.4386.94776 11.06124 11.06124 0 01-2.51847 3.25683 21.53587 21.53587 0 001.80664-3.57654 16.55958 16.55958 0 00.987-3.796 22.1451 22.1451 0 00.22422-3.94006A30.019 30.019 0 0034.35086 254.32832zM30.56735 275.27009c1.08679-.57678 2.14572-.96582 3.17972-1.41272a20.97057 20.97057 0 003.05075-1.52429 3.646 3.646 0 01-1.08865 1.49133 6.334 6.334 0 01-1.57361.95386 7.52921 7.52921 0 01-1.74884.48731A5.43025 5.43025 0 0130.56735 275.27009zM40.83789 264.8636a9.50571 9.50571 0 01.624 2.28418 12.75564 12.75564 0 01.15143 2.36059 9.19013 9.19013 0 01-.36542 2.36646 4.14629 4.14629 0 01-1.2232 2.06616 8.91159 8.91159 0 00.45874-2.2229c.07-.74121.11944-1.48791.131-2.2428C40.67764 267.96553 40.66245 266.44649 40.83789 264.8636z"></path><path fill="#5e7c24" d="M47.611,247.31035s29.53662,2.14316,41.63983-11.12283c8.98168-9.84456-.88224-25.44881-13.71509-21.85661C66.9444,216.73581,56.62968,225.03108,47.611,247.31035Z"></path><path fill="#50661a" d="M47.611,247.31038c1.98685-.83435,3.94925-1.72364,5.89737-2.64075q2.93267-1.35188,5.82089-2.79334c3.84464-1.93066,7.65714-3.92968,11.32911-6.16357a82.17219,82.17219,0,0,0,10.58291-7.31665,39.99217,39.99217,0,0,0,4.64255-4.43921,19.16413,19.16413,0,0,0,3.47818-5.38611,19.31972,19.31972,0,0,1-3.23694,5.58911,39.86113,39.86113,0,0,1-4.56308,4.614,56.54639,56.54639,0,0,1-5.13336,3.9657q-2.65847,1.857-5.43967,3.52526-5.57844,3.299-11.44458,6.05542C55.63965,244.15632,51.66339,245.83882,47.611,247.31038Z"></path><path fill="#50661a" d="M78.6424 230.79072a36.45193 36.45193 0 01-.74918-4.28466c-.17471-1.441-.25046-2.89258-.2984-4.34717a29.11316 29.11316 0 01.30722-4.36377 7.29879 7.29879 0 011.72827-3.97742 8.67181 8.67181 0 00-.52838.93567 7.57691 7.57691 0 00-.33453 1.01135c-.07349.34961-.17865.6875-.231 1.04016l-.14359 1.05909a37.68043 37.68043 0 00-.15454 4.28833c-.0061 1.436.07831 2.87207.14639 4.31127zM92.451 230.06025a15.88214 15.88214 0 01-5.25144-.02758 9.85221 9.85221 0 01-2.54534-.80713 3.03036 3.03036 0 01-1.7638-1.94776 3.4929 3.4929 0 001.96942 1.489 15.32626 15.32626 0 002.45328.63208C88.99622 229.69392 90.71045 229.85127 92.451 230.06025zM87.54425 237.85872a20.252 20.252 0 01-7.03723-.38355A10.42593 10.42593 0 0177.2 236.102a4.05211 4.05211 0 01-1.951-2.90722 4.47215 4.47215 0 002.21591 2.47985 12.807 12.807 0 003.19577 1.1753A48.9427 48.9427 0 0087.54425 237.85872zM70.98819 235.89522a28.092 28.092 0 01-2.03772-4.07325 35.64391 35.64391 0 01-1.44223-4.33447 26.96618 26.96618 0 01-.69714-4.52624 15.06475 15.06475 0 01.44744-4.53956 25.96324 25.96324 0 00.874 8.90967c.33728 1.46143.80585 2.8899 1.27984 4.31751Q70.13637 233.78718 70.98819 235.89522zM75.82864 244.15315a10.94748 10.94748 0 01-2.90255-.25208 10.62487 10.62487 0 01-2.77442-.98645 7.618 7.618 0 01-2.31527-1.86608 5.45393 5.45393 0 01-1.09006-2.71863 7.583 7.583 0 001.47012 2.38952 9.35639 9.35639 0 002.23676 1.62635 15.26077 15.26077 0 002.60189 1.07141C73.959 243.69819 74.88025 243.95711 75.82864 244.15315zM59.92938 225.43318a24.14666 24.14666 0 00-.68692 3.9707 18.86286 18.86286 0 00.04444 3.98255 14.65541 14.65541 0 00.89273 3.8634 18.34275 18.34275 0 001.80685 3.58655 12.0905 12.0905 0 01-2.266-3.40015 13.38031 13.38031 0 01-1.07318-3.97912 16.49493 16.49493 0 01.10559-4.11353A14.29608 14.29608 0 0159.92938 225.43318zM62.94626 246.4991a8.21151 8.21151 0 01-3.47284-.783 5.28964 5.28964 0 01-2.6463-2.37952 12.44759 12.44759 0 002.91809 1.7959C60.77917 245.61787 61.85156 246.021 62.94626 246.4991zM53.06229 235.72481c-.02152 1.56481-.12445 3.09216-.12275 4.61621a20.0214 20.0214 0 00.09 2.26953 7.20055 7.20055 0 00.51425 2.21533 4.54532 4.54532 0 01-1.01013-2.13245 10.265 10.265 0 01-.238-2.35461A14.38544 14.38544 0 0153.06229 235.72481z"></path><path fill="#8b9d36" d="M46.48742,276.30412s29.53662,2.14316,41.63983-11.12284c8.98168-9.84455-.88224-25.4488-13.71509-21.8566C65.82087,245.72958,55.50615,254.02485,46.48742,276.30412Z"></path><path fill="#5e7c24" d="M46.48743,276.30415c1.96441-.8905,3.92688-1.77588,5.86218-2.72034q2.9208-1.37493,5.79669-2.8363c3.82865-1.95557,7.63825-3.95,11.29721-6.19336a83.81093,83.81093,0,0,0,10.58566-7.26868,39.95981,39.95981,0,0,0,4.66419-4.39111,19.949,19.949,0,0,0,3.54507-5.32983,18.59754,18.59754,0,0,1-3.17,5.64538,39.89064,39.89064,0,0,1-4.54147,4.662,53.83738,53.83738,0,0,1-5.12976,3.99451q-2.65924,1.86712-5.44056,3.54467c-3.73193,2.1897-7.55786,4.20936-11.47641,6.0254A125.60786,125.60786,0,0,1,46.48743,276.30415Z"></path><path fill="#5e7c24" d="M77.51886 259.7845a33.57279 33.57279 0 01-1.22549-8.63 24.37742 24.37742 0 01.34414-4.38537 7.02267 7.02267 0 011.86926-3.95764 10.04455 10.04455 0 00-.4866.95751 7.48859 7.48859 0 00-.29339 1.01661 18.3129 18.3129 0 00-.31647 2.09192c-.1026 1.41491-.13172 2.83813-.11762 4.26672C77.32419 254.00532 77.48483 256.87105 77.51886 259.7845zM91.32748 259.054a13.04685 13.04685 0 01-5.28277.14734 9.10636 9.10636 0 01-2.57077-.85547 2.93968 2.93968 0 01-1.707-2.07434 3.71628 3.71628 0 002.02615 1.3623 18.727 18.727 0 002.42786.58374C87.88693 258.51607 89.585 258.70405 91.32748 259.054zM86.42072 266.85249a15.76949 15.76949 0 01-3.53852.25122 17.52877 17.52877 0 01-3.54111-.46216 10 10 0 01-3.33776-1.42785 3.95291 3.95291 0 01-1.87793-3.02527 4.65377 4.65377 0 002.289 2.36206 13.85212 13.85212 0 003.165 1.12048C81.79208 266.21626 84.08609 266.4864 86.42072 266.85249zM69.86465 264.889a27.37259 27.37259 0 01-3.65255-8.3645 23.191 23.191 0 01-.66645-4.558 13.76589 13.76589 0 01.58936-4.551 27.07708 27.07708 0 00.18848 4.48852 42.4753 42.4753 0 00.85815 4.37806c.35169 1.449.79291 2.87817 1.2402 4.31079C68.88943 262.01875 69.35361 263.45369 69.86465 264.889zM74.70511 273.14692a9.25167 9.25167 0 01-2.93817-.11853 9.88874 9.88874 0 01-2.822-.96289 7.32983 7.32983 0 01-2.337-1.93237 5.0531 5.0531 0 01-.98514-2.80945 8.65729 8.65729 0 001.57508 2.29859 10.16345 10.16345 0 002.215 1.56018 17.60091 17.60091 0 002.55432 1.09485C72.856 272.5865 73.76443 272.86873 74.70511 273.14692zM58.80585 254.427a30.02226 30.02226 0 00-.546 3.988 22.14818 22.14818 0 00.08032 3.94556A16.55939 16.55939 0 0059.188 266.19a21.533 21.533 0 001.675 3.64013 11.06207 11.06207 0 01-2.398-3.34656 5.25776 5.25776 0 01-.40372-.96313c-.10947-.33044-.2381-.65735-.33142-.99341a15.66953 15.66953 0 01-.383-2.05664A14.1195 14.1195 0 0158.80585 254.427zM61.82275 275.49287a5.43068 5.43068 0 01-1.818-.07092 7.5308 7.5308 0 01-1.72989-.55078 6.33405 6.33405 0 01-1.53778-1.01062 3.647 3.647 0 01-1.03351-1.53015 20.962 20.962 0 002.99314 1.63464C59.71368 274.44941 60.75772 274.87678 61.82275 275.49287zM51.93875 264.71858c.11759 1.58826.047 3.10559.055 4.61682-.016.75476.00623 1.50281.04911 2.24609a8.91132 8.91132 0 00.37735 2.23816 4.14679 4.14679 0 01-1.147-2.10962 9.18893 9.18893 0 01-.27887-2.37805 12.75588 12.75588 0 01.23749-2.35351A9.50476 9.50476 0 0151.93875 264.71858z"></path><path fill="#8b9d36" d="M56.35738,223.793s-8.18919-28.45949,2.29519-43.03865c7.78036-10.81905,25.08358-4.3857,24.21547,8.91213C82.28686,198.56911,76.29743,210.373,56.35738,223.793Z"></path><path fill="#5e7c24" d="M56.35736,223.793a125.604,125.604,0,0,1,2.28937-12.73889c.96884-4.20886,2.15591-8.36914,3.52881-12.47241q1.06563-3.06537,2.34628-6.05469a53.84224,53.84224,0,0,1,2.85056-5.84338,39.90792,39.90792,0,0,1,3.625-5.4054,18.59982,18.59982,0,0,1,4.87027-4.26623,19.94533,19.94533,0,0,0-4.484,4.56811,39.96407,39.96407,0,0,0-3.33478,5.46961,83.8184,83.8184,0,0,0-4.929,11.8573c-1.44052,4.043-2.60632,8.182-3.73007,12.33166q-.84311,3.11334-1.57977,6.25708C57.28513,219.5843,56.82349,221.68721,56.35736,223.793Z"></path><path fill="#5e7c24" d="M66.12137 190.02156c2.85782-.56763 5.695-1.00147 8.5011-1.56079 1.40085-.28089 2.78738-.60291 4.15081-.99512a18.33948 18.33948 0 001.9816-.74109 7.50244 7.50244 0 00.93421-.49682 10.03153 10.03153 0 00.83661-.67359 7.02249 7.02249 0 01-3.487 2.64526 24.38046 24.38046 0 01-4.22013 1.24134A33.57653 33.57653 0 0166.12137 190.02156zM63.988 176.3592c.70184 1.63282 1.236 3.25562 1.87164 4.82422a18.72074 18.72074 0 001.072 2.25525 3.71729 3.71729 0 001.751 1.70166 2.9403 2.9403 0 01-2.3819-1.24255 9.10638 9.10638 0 01-1.36725-2.339A13.0465 13.0465 0 0163.988 176.3592zM57.36932 182.76887c.83969 2.209 1.57718 4.398 2.56708 6.45056a13.8506 13.8506 0 001.74927 2.86585 4.65406 4.65406 0 002.78332 1.75256 3.95292 3.95292 0 01-3.34753-1.2135 10.00134 10.00134 0 01-2.0856-2.97156 17.5262 17.5262 0 01-1.18253-3.36962A15.76374 15.76374 0 0157.36932 182.76887zM62.70541 198.564c1.50977.204 3.00968.36218 4.50135.52563 1.49408.14222 2.98346.27918 4.47387.32447a42.47721 42.47721 0 004.46091-.06336 27.08214 27.08214 0 004.43088-.74133 13.76754 13.76754 0 01-4.33158 1.51538 23.18524 23.18524 0 01-4.59744.288A27.372 27.372 0 0162.70541 198.564zM53.62662 195.53084c.46621.86315.92981 1.69384 1.41559 2.49975a17.60544 17.60544 0 001.5982 2.27356 10.1654 10.1654 0 001.98343 1.84558 8.65825 8.65825 0 002.57407 1.06714 5.05355 5.05355 0 01-2.95221-.38452 7.3305 7.3305 0 01-2.37284-1.88818 9.8853 9.8853 0 01-1.52429-2.56275A9.25332 9.25332 0 0153.62662 195.53084zM75.22342 207.22712a14.11935 14.11935 0 01-7.56964 3.08667 15.64812 15.64812 0 01-2.09137.04944c-.34815-.022-.69449-.08044-1.04047-.11938a5.25764 5.25764 0 01-1.02569-.19641 11.06226 11.06226 0 01-3.76914-1.65613 21.53856 21.53856 0 003.90729.88818 16.55917 16.55917 0 003.922.03968 22.1404 22.1404 0 003.87732-.73523A30.02427 30.02427 0 0075.22342 207.22712zM53.98819 208.62007c.82251.915 1.456 1.84851 2.13968 2.74377a20.97684 20.97684 0 002.21686 2.59156 3.64638 3.64638 0 01-1.71033-.69568 6.33021 6.33021 0 01-1.30606-1.29627 7.532 7.532 0 01-.89584-1.579A5.43124 5.43124 0 0153.98819 208.62007zM66.56946 216.06929a9.50328 9.50328 0 01-2.06549 1.15783 12.751 12.751 0 01-2.25394.71778 9.18532 9.18532 0 01-2.38452.21765 4.14655 4.14655 0 01-2.30072-.68713 8.91753 8.91753 0 002.26785-.09241c.73615-.11145 1.47269-.244 2.208-.41528C63.52087 216.66389 64.99112 216.28181 66.56946 216.06929z"></path><path fill="#d6694b" d="M26.65211,279.59245v5.34632a1.85289,1.85289,0,0,0,1.83439,1.87085H65.23926a1.85289,1.85289,0,0,0,1.83438-1.87085v-4.927a1.85339,1.85339,0,0,0-1.81386-1.87074L28.507,277.72172A1.85239,1.85239,0,0,0,26.65211,279.59245Z"></path><polygon fill="#e19974" points="28.406 286.81 29.714 314.404 63.148 314.404 65.319 286.81 28.406 286.81"></polygon><path fill="#f9e0c0" d="M420.386,108.98605c8.25271,57.92528-77.04822,186.18-140.09178,126.97115C247.1094,204.79081,168.033,170.18239,110.31714,153.16191c-56.12065-16.55027,54.46838-114.772,140.09154-126.97086S412.13327,51.06077,420.386,108.98605Z"></path><path fill="#f4c5a2" d="M95.14941,154.46052c-11.87207-3.501-17.75927-10.69336-17.02392-20.79882,1.31543-18.08106,23.63428-44.84961,58.24609-69.85938C172.604,37.62068,214.66943,19.07966,248.897,14.20271,342.94629.8033,426.84424,41.73787,435.92236,105.45076l-.99023.14062C425.93262,42.42439,342.53955,1.86775,249.0376,15.193c-34.07373,4.85449-75.97315,23.3291-112.08057,49.41992-34.37842,24.84179-56.53955,51.32715-57.834,69.12207-.707,9.71582,4.78027,16.36621,16.30957,19.7666Z"></path><path fill="#160b07" d="M135.05093,79.33424c2.36471-4.4143,4.69807-11.038,4.42828-20.64481a29.54934,29.54934,0,0,0-7.93252-9.4962c1.50337.03224,2.71163.12055,3.86978.02972,7.69359-.60328,17.1872-9.44624,16.26121-17.82164-.807-7.29959-9.23653-11.59975-11.28732-12.64607a17.15523,17.15523,0,0,0-16.74021-.04562,19.55486,19.55486,0,0,0-7.45412,7.34762c-1.84735,3.00994-1.79432,3.30317-5.14869,6.179-3.71375,3.184-6.20646,4.20471-8.18442,7.73551-1.25249,2.236-1.21162,5.96785-1.00148,8.71251A31.112,31.112,0,0,0,93.27807,61.382c-2.747,7.24745-2.79626,16.048-2.80925,18.37068-.02908,5.18661.60161,8.65221-1.6662,12.49994-2.01436,3.41779-4.15933,3.47816-6.67621,6.22284-4.68642,5.11059-6.25882,14.72553-2.70563,20.81682,5.82664,9.98884,24.92126,9.61916,32.09669,1.95321,4.83342-5.16391.61816-9.74938,5.26216-19.93518C121.80494,90.28813,129.22354,90.21257,135.05093,79.33424Z"></path><path fill="#376f92" d="M113.8065,62.034s-17.13066,91.55953-33.23408,112.6817c0,0,.07059,10.10881,24.26909,8.89441C104.84151,183.61013,128.333,61.67231,113.8065,62.034Z"></path><path fill="#d8a935" d="M176.56905,56.7873c.193-.94591-1.83562-2.30961-2.17589-2.5383a6.833,6.833,0,0,0-2.62109-1.03381,7.26471,7.26471,0,0,0-3.8786.20405,7.15011,7.15011,0,0,0-2.04105,1.12268c-.55817.43662-2.22822,1.74287-2.04133,2.5516C164.26985,59.08016,176.13215,58.92969,176.56905,56.7873Z"></path><path fill="#dd765e" d="M199.75055,48.94377l-2.01683-1.06853s-2.09441-.14547-1.27482,2.08873a4.47428,4.47428,0,0,0,2.93209,2.73547l3.75365.8907Z"></path><path fill="#160b07" d="M178.21477,55.67232c9.74528-5.45338,33.23856-7.44915,34.26333-7.56166a1.18051,1.18051,0,0,1,.25729,2.34695c-.2453.02675-18.8828,2.45262-33.75544,7.63769-.6914.778-2.40839,1.66125-6.09113,2.52055-10.19864,2.37964-12.4649-4.94353-12.4649-4.94353Z"></path><path fill="#f9977a" d="M144.70535,60.35618l4.297,3.41638,3.08187,12.81776-28.9422-.357,3.17315-15.14184s2.79417-.33214,5.16366-8.09447Z"></path><path fill="#dd765e" d="M143.79157,54.67166s-5.70006,4.16437-12.24414-1.07945c0,0,2.16924,9.17291,13.15792,6.764A6.53386,6.53386,0,0,1,143.79157,54.67166Z"></path><path fill="#f9977a" d="M151.05149,35.82106c-2.14049-10.51762-9.70239-17.858-16.88994-16.39521-5.54754,1.129-9.24729,7.17378-9.66422,14.70872a2.05019,2.05019,0,0,0-1.72317-.2501c-1.56117.58015-1.88988,3.57139-.73422,6.681.9757,2.62551,2.69654,4.489,4.14866,4.65859,3.03207,8.24611,9.51632,13.5527,15.72438,12.2893C149.10055,56.05059,153.192,46.33862,151.05149,35.82106Z"></path><path fill="#dd765e" d="M142.39548,34.97133a7.02366,7.02366,0,0,0,.42535,3.65026,17.06478,17.06478,0,0,0,1.62412,3.32618l.547.77258a1.57637,1.57637,0,0,1,.32248,1.11981,2.50315,2.50315,0,0,1-1.234,1.7124,4.30649,4.30649,0,0,1-3.82971.08606,6.74189,6.74189,0,0,0,1.87.05347,3.21887,3.21887,0,0,0,1.64459-.59863,2.07427,2.07427,0,0,0,.86679-1.319.8943.8943,0,0,0-.22162-.65125c-.17175-.2384-.38034-.49908-.56387-.76874a12.63284,12.63284,0,0,1-1.5502-3.55334A5.83339,5.83339,0,0,1,142.39548,34.97133Z"></path><path fill="#160b07" d="M131.16756 37.58213a.50745.50745 0 01-.26945-.82273c.12709-.1498 3.16106-3.65363 7.27681-2.93031a.50755.50755 0 11-.1756.9998c-3.54962-.6237-6.30038 2.5558-6.32786 2.588A.5077.5077 0 01131.16756 37.58213zM144.49689 33.82964a.50771.50771 0 01-.06343-.96916 9.79547 9.79547 0 016.13659-.09674.50762.50762 0 01-.33777.95741 8.86025 8.86025 0 00-5.43945.08926A.50788.50788 0 01144.49689 33.82964zM132.23978 39.80208a5.65542 5.65542 0 011.4194-1.37537 5.31489 5.31489 0 011.83646-.827 3.85087 3.85087 0 012.03064.08332 3.94576 3.94576 0 011.67706 1.06189 6.10313 6.10313 0 00-1.77319-.68335 4.46172 4.46172 0 00-1.82557.03369A9.20683 9.20683 0 00132.23978 39.80208z"></path><circle cx="136.815" cy="38.873" r="1.138" fill="#160b07"></circle><circle cx="147.649" cy="37.519" r="1.138" fill="#160b07"></circle><path fill="#160b07" d="M143.85687,38.68654a5.65453,5.65453,0,0,1,1.41941-1.37531,5.31249,5.31249,0,0,1,1.83645-.827,3.85077,3.85077,0,0,1,2.03064.08331,3.94558,3.94558,0,0,1,1.67706,1.06183,6.1032,6.1032,0,0,0-1.77322-.68335,4.46154,4.46154,0,0,0-1.82553.03375A9.20679,9.20679,0,0,0,143.85687,38.68654Z"></path><path fill="#dd765e" d="M122.59039,37.52217a2.34969,2.34969,0,0,1,.46433-1.34216,1.26645,1.26645,0,0,1,.69552-.47364,1.16391,1.16391,0,0,1,.88324.14771,2.59355,2.59355,0,0,1,.94953,1.13623,4.21042,4.21042,0,0,1,.3869,1.33038c-.3262-.3399-.58826-.6983-.86288-1.02618a3.55234,3.55234,0,0,0-.832-.812.63122.63122,0,0,0-.81677.08972A6.0424,6.0424,0,0,0,122.59039,37.52217Z"></path><path fill="#dd765e" d="M124.45261,40.96693a7.14461,7.14461,0,0,0,.053-1.24231c-.015-.40094-.04358-.79858-.09272-1.197-.07516-.80176-.221-1.59863-.24951-2.48828a4.28485,4.28485,0,0,1,.65656,1.13611,5.08924,5.08924,0,0,1,.3125,1.27692,4.13055,4.13055,0,0,1-.06711,1.33026A2.311,2.311,0,0,1,124.45261,40.96693Z"></path><circle cx="123.873" cy="43.78" r="2.26" fill="#ffcb33"></circle><path fill="#160b07" d="M137.95387,25.051c-1.25677,1.03066-7.744,11.232-10.082,12.37317a1.44243,1.44243,0,0,1-.85481.17361c-.91449-.13373-1.283-1.31812-2.29957-2.98473-.76826-1.25949-1.10251-1.47607-1.55033-2.18168a10.18165,10.18165,0,0,1-.45893-9.1853A10.7874,10.7874,0,0,1,128.6399,18.012c5.32647-2.28107,10.47448-.28854,11.78008.21677,7.84382,3.03593,11.19266,10.80141,10.91544,11.02992C151.00954,29.52725,144.39765,19.76653,137.95387,25.051Z"></path><path fill="#f9977a" d="M92.93355,275.77478S75.34474,291.36643,76.274,292.97146s33.63,28.38046,29.78626,20.5404l-5.51365-9.89719a12.8716,12.8716,0,0,1,.89744-13.92036l4.36972-5.90549Z"></path><path fill="#f73943" d="M104.47841,310.67242l-7.43067-4.22565a30.73993,30.73993,0,0,1,4.47141-.7603,1.361,1.361,0,0,0,1.04046-2.02511,2.27568,2.27568,0,0,0-1.96613-1.15955,23.16087,23.16087,0,0,0-6.54052,1.439L91.18985,301.545c.29982-1.94231.47261-8.1469-6.55451-18.10081a.63058.63058,0,0,0-.951-.08866l-1.29789,1.25421a.62849.62849,0,0,0-.08076.80812,38.20843,38.20843,0,0,1,5.76255,13.515L77.82441,290.361c-2.3778,1.09232-3.62852,4.63507-3.62852,4.63507,2.04253,2.05966,17.11042,19.50825,28.3428,19.50825,5.53909,0,7.35693.95253,9.05872,0C114.7803,312.72275,104.47841,310.67242,104.47841,310.67242Z"></path><path fill="#f9977a" d="M135.45129,287.47418s-4.64386,23.04126-2.93519,23.7624,46.516,3.52632,38.72455-.41506l-12.93961-5.7148a12.87155,12.87155,0,0,1-7.67082-11.65076l-.07055-7.346Z"></path><path fill="#376f92" d="M156.23109,125.70739l3.86941,54.3606.04857,106.45638a9.11853,9.11853,0,0,1-7.987,9.06609,150.77686,150.77686,0,0,1-34.08206.31847c-14.05393-1.46679-25.33785-6.476-34.35806-10.56944A10.25943,10.25943,0,0,1,77.787,274.64464c2.10194-15.80216,4.33413-30.74,7.72682-48.48913,6.31415-33.03308,15.52063-73.14978,27.08994-101.48389Z"></path><path fill="#f73943" d="M169.59927,310.0966l-12.38437-.62146a30.73942,30.73942,0,0,1,3.11062-3.30084,1.361,1.361,0,0,0-.38973-2.24316,2.27569,2.27569,0,0,0-2.26784.25915,23.1609,23.1609,0,0,0-4.35309,5.08916l-3.72857-.18708c-.931-1.73083-4.53135-6.78692-16.13707-10.49741a.63058.63058,0,0,0-.81243.50223l-.2802,1.783a.62848.62848,0,0,0,.42244.69363,38.20853,38.20853,0,0,1,12.742,7.31456l-13.34036-.6694c-1.23962,2.30443-.10332,5.88553-.10332,5.88553,21.5752,2.69748,41.9562.83137,45.09138-1.03268S169.59927,310.0966,169.59927,310.0966Z"></path><path fill="#f9977a" d="M205.21269,67.38657l6.11916-7.394v-1.71a6.45157,6.45157,0,0,0-2.79088-5.31244l-7.32273-5.04591s-2.153-.56659-1.2465,2.153l3.1729,3.51285-6.68574-1.58645s-2.153.79322,0,2.493c0,0-5.21262-.79323-1.92641,2.60631l3.85281,1.47313-.39974.25437a6.93992,6.93992,0,0,0-3.21033,6.08182l.66381,20.29348L178.9513,75.80041l-7.9889,16.14778,26.2302,13.4929a9.20864,9.20864,0,0,0,13.26546-9.87383Z"></path><path fill="#dd765e" d="M202.32324,57.13142a.26855.26855,0,0,1-.10547-.02051l-5.86425-2.35156a.2827.2827,0,0,1-.15772-.36816.27851.27851,0,0,1,.36865-.15723l5.86426,2.35156a.283.283,0,0,1-.10547.5459Z"></path><path fill="#f73c4f" d="M179.57455,74.66724,170.9624,92.45812,162.46357,88.492l-6.23247,31.16238a7.67046,7.67046,0,0,1,0,7.0257l-43.62733,3.51285V96.19761L91.86662,93.81793s12.01168-28.55607,17.111-30.59579,17.33762-2.13065,17.33762-2.13065-1.2465,15.38883,10.8785,13.23579,8.61215-13.23579,8.61215-13.23579h7.86034a12.08894,12.08894,0,0,1,6.2351,1.732Z"></path><path fill="#b02336" d="M164.27666 79.53987a18.81791 18.81791 0 01-.41678 4.57526 18.60445 18.60445 0 01-1.3963 4.37689 18.60386 18.60386 0 01.41678-4.57526A18.81732 18.81732 0 01164.27666 79.53987zM149.31873 120.90083a29.467 29.467 0 01-7.59568 1.82275 28.00126 28.00126 0 01-7.86694-.18713 20.56221 20.56221 0 01-7.397-2.74658 17.64678 17.64678 0 01-5.58313-5.46143 23.27964 23.27964 0 002.79678 2.66944 18.17573 18.17573 0 003.17242 2.12671 23.40857 23.40857 0 007.182 2.42712 34.6348 34.6348 0 007.634.40869c1.282-.05774 2.56354-.1864 3.83887-.37231C146.78094 121.42756 148.051 121.18721 149.31873 120.90083zM113.17035 64.69526a4.5258 4.5258 0 011.36063 1.35993 6.13048 6.13048 0 01.51458.82641 5.83625 5.83625 0 01.43311.87348 17.27863 17.27863 0 011.053 3.74347 32.51435 32.51435 0 01.16781 7.73016 54.9125 54.9125 0 01-1.3063 7.58606c-.33719 1.23676-.60654 2.489-.99851 3.70758-.41 1.21393-.78643 2.43494-1.2243 3.63556.46347-2.519 1.044-4.99481 1.46988-7.50049.44519-2.49981.81586-5.00525 1.06393-7.51892a42.8673 42.8673 0 00.0687-7.53723 17.13407 17.13407 0 00-.74933-3.67194A7.2623 7.2623 0 00113.17035 64.69526z"></path><path fill="#dd765e" d="M197.69629,90.75154c-2.49951,0-2.54053-5.31836-2.541-5.54492a.28331.28331,0,0,1,.28321-.28418h.00048a.28331.28331,0,0,1,.2837.28222c.00341,1.38575.36523,4.98047,1.97363,4.98047a.28321.28321,0,1,1,0,.56641Z"></path><circle cx="141.226" cy="50.735" r="2.631" fill="#dd2f22"></circle><path fill="#bababa" d="M147.33865 48.75837c.85141-.24047 1.71167-.41949 2.57328-.58911.86068-.17608 1.72769-.308 2.59472-.43982.869-.11847 1.73807-.23577 2.61344-.30963.87454-.07953 1.75036-.15027 2.63516-.15838-.85129.24139-1.71158.4201-2.57312.59008-.86075.1756-1.72772.3078-2.59488.43885-.86905.11767-1.73813.23523-2.61356.30865C149.09918 48.67885 148.22333 48.74934 147.33865 48.75837zM146.51044 51.2079a5.97511 5.97511 0 011.09964-.2171 9.22952 9.22952 0 012.19925-.001 5.92735 5.92735 0 011.09964.21808 5.938 5.938 0 01-1.09964.21808 9.23091 9.23091 0 01-2.19925-.001A5.9801 5.9801 0 01146.51044 51.2079zM146.51044 53.59016c.71618.06012 1.41717.18048 2.11587.31006.70026.12323 1.38962.28967 2.079.4563.686.17969 1.37174.36047 2.04675.5838a21.25869 21.25869 0 012.00937.73206 21.25912 21.25912 0 01-2.11609-.30915c-.70016-.12365-1.38958-.28991-2.0787-.45727-.68585-.18042-1.37164-.361-2.04654-.58478C147.8436 54.10365 147.1694 53.877 146.51044 53.59016zM174.83392 34.12916a3.41583 3.41583 0 011.45577 1.3418 2.4692 2.4692 0 01.10861 2.03735 8.60391 8.60391 0 01-.9735 1.758 6.019 6.019 0 01-.64248.793 3.88287 3.88287 0 00-.58249.71387 5.62339 5.62339 0 00-.77428 1.68554 3.829 3.829 0 00.02437 1.81818 3.64582 3.64582 0 002.5067 2.61023 3.52425 3.52425 0 01-1.81041-.79248 3.78746 3.78746 0 01-1.115-1.69574 3.84174 3.84174 0 01-.10917-2.05316 6.09258 6.09258 0 01.80165-1.87921 4.44239 4.44239 0 01.67131-.78449 5.47334 5.47334 0 00.60779-.711 11.53251 11.53251 0 00.99133-1.62127 2.12376 2.12376 0 00.0461-1.76008A3.59405 3.59405 0 00174.83392 34.12916zM169.0692 37.68678a3.41526 3.41526 0 011.45575 1.34174 2.4692 2.4692 0 01.10861 2.03735 8.60232 8.60232 0 01-.9735 1.758 6.01511 6.01511 0 01-.64248.793 3.88315 3.88315 0 00-.58249.71386 5.62345 5.62345 0 00-.77428 1.68555 3.829 3.829 0 00.02437 1.81818 3.64576 3.64576 0 002.5067 2.61023 3.52425 3.52425 0 01-1.81041-.79242 3.78779 3.78779 0 01-1.115-1.69574 3.8417 3.8417 0 01-.10916-2.05317 6.09214 6.09214 0 01.80164-1.87927 4.44483 4.44483 0 01.67131-.78448 5.46848 5.46848 0 00.60779-.711 11.53548 11.53548 0 00.99133-1.62122 2.12392 2.12392 0 00.04611-1.76013A3.59388 3.59388 0 00169.0692 37.68678zM166.61832 30.243a3.41613 3.41613 0 011.45575 1.34174 2.46939 2.46939 0 01.10861 2.03741 8.60391 8.60391 0 01-.9735 1.758 6.01983 6.01983 0 01-.64248.793 3.88369 3.88369 0 00-.58249.71387 5.6226 5.6226 0 00-.77426 1.68554 3.82889 3.82889 0 00.02435 1.81818A3.64579 3.64579 0 00167.741 43.001a3.52419 3.52419 0 01-1.8104-.79248 3.78767 3.78767 0 01-1.115-1.69574 3.84164 3.84164 0 01-.10916-2.05316 6.09232 6.09232 0 01.80164-1.87921 4.44352 4.44352 0 01.67131-.78449 5.47558 5.47558 0 00.60778-.711 11.53165 11.53165 0 00.99134-1.62127 2.12378 2.12378 0 00.04611-1.76007A3.59376 3.59376 0 00166.61832 30.243z"></path><path fill="#376f92" d="M128.30826,59.6155S116.333,57.11231,113.8065,62.034L109.918,132.54489s21.43613,72.46258,50.23465,49.68628C160.15266,182.23117,159.90131,62.82351,128.30826,59.6155Z"></path><path fill="#10394f" d="M94.902,183.401c2.02639-8.60876,4.27108-17.16272,6.62365-25.68884q1.7993-6.38452,3.72684-12.7356c1.279-4.23632,2.645-8.44738,4.22925-12.5979l-.03006.14344.48047-9.11109.53934-9.10827c.1929-3.03553.35278-6.07257.57351-9.10669l.64664-9.10309-.24014,9.12286c-.07486,3.0412-.21057,6.07947-.3133,9.11926l-.34741,9.11768-.40634,9.11475-.00317.07141-.027.07251c-1.53336,4.12353-2.84848,8.342-4.1861,12.54858q-1.97808,6.321-3.82431,12.68726Z"></path><path fill="#10394f" d="M160.15265,182.23115a22.34409,22.34409,0,0,1-9.73312,2.4679,23.93883,23.93883,0,0,1-9.94028-1.92432,30.19392,30.19392,0,0,1-8.545-5.49023,47.63024,47.63024,0,0,1-6.77166-7.5636,70.63469,70.63469,0,0,1-5.23514-8.67127l-1.15106-2.25378-1.047-2.30164c-.34283-.76989-.70258-1.53259-1.03134-2.308l-.91535-2.35522a142.46555,142.46555,0,0,1-5.86465-19.28614c1.00909,3.20533,1.91638,6.43494,3.05112,9.59253.507,1.5979,1.085,3.17054,1.68069,4.73621l.87772,2.35327.96844,2.31628a86.64063,86.64063,0,0,0,9.4765,17.593c3.85947,5.38184,8.72669,10.23377,14.80875,12.93494A23.74219,23.74219,0,0,0,160.15265,182.23115Z"></path><path fill="#10394f" d="M118.54739 71.7278l1.56244 11.93048 1.45075 11.94287 2.77163 23.89709c.88337 7.96778 1.80112 15.93518 3.05076 23.83789a66.63614 66.63614 0 002.789 11.62439 52.03361 52.03361 0 005.54962 10.60242 49.09625 49.09625 0 01-6.00791-10.42834 66.6839 66.6839 0 01-3.08847-11.66626c-.727-3.95411-1.27337-7.93384-1.8067-11.91126q-.78068-5.96888-1.47858-11.94482c-.86987-7.97486-1.74761-15.94666-2.54049-23.92768C120.00757 87.7035 119.22327 79.72188 118.54739 71.7278zM137.19373 74.32728c1.68078 3.82337 3.09771 7.75794 4.39993 11.72681 1.30179 3.97064 2.39471 8.00653 3.42456 12.05707.96539 4.06647 1.81 8.16461 2.44806 12.2959a111.04573 111.04573 0 011.24344 12.46521c-.34482-2.06214-.53345-4.13636-.92923-6.18457l-.49384-3.08265-.57843-3.0675c-.79162-4.08392-1.62359-8.16071-2.66055-12.19037-.94412-4.05163-2.04639-8.06506-3.18619-12.069q-.85647-3.00284-1.78378-5.98675C138.48676 78.29262 137.83755 76.31306 137.19373 74.32728zM131.54742 86.25538c.433 1.90564.80289 3.82215 1.20618 5.73322l1.08869 5.75384c.70858 3.83905 1.32028 7.69428 1.96188 11.545.56479 3.86267 1.15048 7.72265 1.6319 11.5979.47369 3.87561.92727 7.75708 1.15887 11.65954l-1.9202-11.54956-1.85751-11.55407L133.08658 97.8658C132.53632 94.00245 131.99023 90.138 131.54742 86.25538zM144.98041 134.96211a96.12026 96.12026 0 012.72885 9.54236 99.11711 99.11711 0 011.82162 9.77185 58.521 58.521 0 01.54 9.94946 29.02989 29.02989 0 01-.60959 4.96363 12.25309 12.25309 0 01-1.95413 4.56628 13.18439 13.18439 0 001.4726-4.65833 29.01463 29.01463 0 00.32205-4.8872 80.4279 80.4279 0 00-.76178-9.80371c-.41986-3.25965-.98773-6.50208-1.57987-9.74353-.294-1.62134-.62039-3.23755-.96145-4.85144C145.68582 138.19038 145.323 136.58076 144.98041 134.96211z"></path><path fill="#dd765e" d="M166.01784,96.99083a1.65976,1.65976,0,0,0-1.06128-2.83294s-5.22216,1.81308-7.14379,1.41647C157.81277,95.57436,147.70178,101.75017,166.01784,96.99083Z"></path><path fill="#f9977a" d="M109.43087,104.35648l27.87617-6.969s3.56951-5.94918,11.04848-3.22955a9.14364,9.14364,0,0,0,6.51577.56659s6.91238-2.153,1.35981,2.26635l7.139.45327s6.11915-1.73176,5.32593,1.45714c0,0-11.33177,2.28235-13.25818,3.30221s-13.37149,3.39953-13.37149,3.39953l-39.99292,19.04908a9.9331,9.9331,0,0,1-13.77527-11.8564L93.963,94.15789l17.72859,1.935Z"></path><path fill="#f9977a" d="M137.307,97.38744s3.56951-5.94918,11.04848-3.22955a9.14364,9.14364,0,0,0,6.51577.56659s6.91238-2.153,1.35981,2.26635l7.139.45327s6.11915-1.73176,5.32593,1.45714c0,0-11.33177,2.28235-13.25818,3.30221s-13.37149,3.39953-13.37149,3.39953Z"></path><path fill="#dd765e" d="M104.8418 106.76521a.28318.28318 0 01-.14453-.52734 35.20412 35.20412 0 014.63378-2.14746.28369.28369 0 11.19922.53125 35.3039 35.3039 0 00-4.54492 2.10449A.28359.28359 0 01104.8418 106.76521zM150.56543 99.20076a.28321.28321 0 110-.56641c2.27393 0 5.48975-1.86914 5.522-1.88769a.28322.28322 0 11.28711.48828C156.2373 97.316 152.99365 99.20076 150.56543 99.20076z"></path><path fill="#10394f" d="M142.95172 182.74971c.3523 6.31433.595 12.63122.82117 18.94848.22842 6.31726.367 12.6366.55493 18.95472.107 6.32006.25714 12.639.32364 18.96008l.07974 9.48193c-.01 3.16138.01444 6.32215-.02585 9.48426-.1864-3.15686-.30813-6.31531-.46423-9.473l-.35867-9.47546c-.2258-6.31726-.36792-12.63648-.5532-18.95471-.10437-6.32007-.258-12.639-.32186-18.96C142.94122 195.395 142.89166 189.07368 142.95172 182.74971zM135.72058 179.721c-.99325 8.77551-2.09512 17.536-3.21344 26.29443l-3.47729 26.25818-3.70655 26.22681-1.9346 13.1023-2.03921 13.088 1.55356-13.15442 1.65817-13.14014 3.479-26.258 3.70828-26.22657C133.02536 197.17488 134.31866 188.4405 135.72058 179.721zM152.08426 184.76887c.31555 2.8075.52161 5.61975.711 8.43262.20086 2.81238.32321 5.62805.44528 8.4436.09827 2.81641.19452 5.63306.21347 8.4524l.02484 4.229c-.02826 1.41089-.02215 2.82056-.08072 4.23242-.16806-1.40393-.27145-2.81006-.40921-4.215l-.30362-4.21851c-.2-2.81238-.32278-5.62744-.44348-8.44263-.09692-2.816-.19354-5.6322-.21167-8.45141C152.00064 190.41267 151.9877 187.59309 152.08426 184.76887z"></path><polygon fill="#f65b2b" points="451.02 167.973 431.72 167.973 434.172 162.214 448.569 162.214 451.02 167.973"></polygon><rect width="273.622" height="147.506" x="203.299" y="167.951" fill="#935b50" rx="5" transform="rotate(-180 340.11 241.704)"></rect><rect width="72.643" height="116.242" x="393.067" y="183.583" fill="#e19974" rx="5" transform="rotate(-180 429.389 241.704)"></rect><rect width="72.643" height="116.242" x="309.214" y="183.583" fill="#e19974" rx="5" transform="rotate(-180 345.535 241.704)"></rect><rect width="84.436" height="31.21" x="214.509" y="268.615" fill="#e19974" rx="5" transform="rotate(-180 256.727 284.22)"></rect><rect width="84.436" height="31.21" x="214.509" y="226.195" fill="#e19974" rx="5" transform="rotate(-180 256.727 241.8)"></rect><rect width="84.436" height="31.21" x="214.509" y="183.583" fill="#e19974" rx="5" transform="rotate(-180 256.727 199.188)"></rect><rect width="69.146" height="1" x="355.355" y="71.605" fill="#b02336"></rect><rect width="1" height="8.476" x="424" y="68.069" fill="#b02336"></rect><rect width="1" height="8.476" x="354.497" y="68.069" fill="#b02336"></rect><rect width="69.145" height="1" x="231.356" y="16.938" fill="#b02336"></rect><rect width="1" height="8.475" x="300.001" y="13.402" fill="#b02336"></rect><rect width="1" height="8.475" x="230.497" y="13.402" fill="#b02336"></rect><path fill="#e19974" d="M368.2219 71.52285a9.35688 9.35688 0 00-1.01465 2.30664 13.184 13.184 0 00-.49878 2.30664 18.34233 18.34233 0 00.33618 4.613q.21021 2.30676.50464 4.61328c.22632 1.5376.40381 3.07544.67261 4.613a.17059.17059 0 00.33618 0c.26855-1.5376.44629-3.07544.67261-4.613q.29444-2.30676.50464-4.61328a18.34279 18.34279 0 00.33618-4.613 13.184 13.184 0 00-.49878-2.30664 9.35725 9.35725 0 00-1.01465-2.30664.19849.19849 0 00-.27344-.06274A.20246.20246 0 00368.2219 71.52285zM413.39578 71.14419a11.25977 11.25977 0 00-1.01465 2.59961 16.5047 16.5047 0 00-.49878 2.59937 23.23882 23.23882 0 00.33618 5.199q.21021 2.59972.5044 5.199c.22656 1.73316.404 3.46607.67285 5.199a.17009.17009 0 00.33618 0c.26856-1.73291.44629-3.46582.67261-5.199q.29444-2.59937.50439-5.199a23.23844 23.23844 0 00.33643-5.199 16.53211 16.53211 0 00-.49878-2.59937 11.27059 11.27059 0 00-1.01465-2.59961.19241.19241 0 00-.33618 0zM400.41458 71.14419a9.37017 9.37017 0 00-1.01465 2.30811 13.24982 13.24982 0 00-.49878 2.3081 18.36793 18.36793 0 00.33643 4.61621q.21019 2.30787.50439 4.616c.22656 1.53882.40405 3.07739.67261 4.61621a.1708.1708 0 00.33643 0c.26855-1.53882.446-3.07739.6726-4.61621q.29443-2.30786.5044-4.616a18.36745 18.36745 0 00.33642-4.61621 13.248 13.248 0 00-.49878-2.3081 9.36975 9.36975 0 00-1.01464-2.30811.19854.19854 0 00-.27344-.06274A.20311.20311 0 00400.41458 71.14419zM271.89314 147.59592a19.01525 19.01525 0 004.54248 2.00781 27.623 27.623 0 004.54224.97046 16.80631 16.80631 0 004.54224-.033c1.51416-.22412 3.02807-.48755 4.54223-.62891l4.54224-.44653 4.54224-.54614c3.02832-.40552 6.05639-.80078 9.08471-1.32373a.33585.33585 0 000-.66187c-3.02832-.523-6.05639-.918-9.08471-1.32373l-4.54224-.5459-4.54224-.44677c-1.51416-.14136-3.02807-.40479-4.54223-.62891a16.81644 16.81644 0 00-4.54224-.033 27.62407 27.62407 0 00-4.54224.97046 19.02521 19.02521 0 00-4.54248 2.00781.3907.3907 0 00-.12353.53833A.39776.39776 0 00271.89314 147.59592zM292.4803 15.63937a23.52223 23.52223 0 00-2.04052 5.23658 35.65194 35.65194 0 00-.98633 5.23657 21.9737 21.9737 0 00.03369 5.23657c.22778 1.74561.4956 3.491.63891 5.23657l.45411 5.23658.55493 5.23657c.41211 3.491.81372 6.98193 1.34521 10.47314a.34021.34021 0 00.67261 0c.53149-3.49121.93311-6.98217 1.34521-10.47314l.55494-5.23657.4541-5.23658c.14331-1.7456.41113-3.491.63891-5.23657a21.96169 21.96169 0 00.0337-5.23657 35.65326 35.65326 0 00-.98633-5.23657 23.52276 23.52276 0 00-2.04053-5.23658.38442.38442 0 00-.67261 0zM236.41365 33.10959l4.29492-1.291a7.96126 7.96126 0 01-.33886-2.29394 7.86572 7.86572 0 1115.73144 0 7.9616 7.9616 0 01-.33886 2.29394l4.29492 1.291a12.35011 12.35011 0 10-23.64356 0zM248.23982 89.428a12.3604 12.3604 0 0011.8584-15.79688l-4.30468 1.25782a7.86449 7.86449 0 11-15.11622-.00879l-4.30468-1.25781A12.36806 12.36806 0 00248.23982 89.428z"></path><path fill="#c6c6c6" d="M297.46549,162.23286H400.78008a0,0,0,0,1,0,0v3.71782a2,2,0,0,1-2,2H299.46549a2,2,0,0,1-2-2v-3.71782A0,0,0,0,1,297.46549,162.23286Z" transform="rotate(-180 349.123 165.092)"></path><path fill="#a0a0a0" d="M366.74545,157.38377h23.40721a0,0,0,0,1,0,0v2.84909a2,2,0,0,1-2,2H368.74545a2,2,0,0,1-2-2v-2.84909A0,0,0,0,1,366.74545,157.38377Z" transform="rotate(-180 378.45 159.808)"></path><rect width="23.407" height="4.849" x="307.331" y="157.384" fill="#a0a0a0" transform="rotate(-180 319.034 159.808)"></rect><circle cx="409.759" cy="241.704" r="5.481" fill="#935b50"></circle><circle cx="365.165" cy="241.704" r="5.481" fill="#935b50"></circle><circle cx="256.727" cy="199.188" r="5.481" fill="#935b50"></circle><circle cx="256.727" cy="241.787" r="5.481" fill="#935b50"></circle><circle cx="256.727" cy="284.386" r="5.481" fill="#935b50"></circle><circle cx="292.817" cy="67.596" r="21.274" fill="#c6c6c6"></circle><circle cx="248.237" cy="53.368" r="24.859" fill="#c6c6c6"></circle><circle cx="248.237" cy="53.368" r="13.805" fill="#a0a0a0"></circle><circle cx="292.817" cy="67.173" r="13.805" fill="#a0a0a0"></circle><path fill="#c6c6c6" d="M373.3534,82.628v19.28114l-5.08755-2.34986a8.33317,8.33317,0,0,1,.77443-15.442Z"></path><path fill="#e19974" d="M382.8019,72.19788a9.357,9.357,0,0,0-1.01465,2.30664,13.18393,13.18393,0,0,0-.49878,2.30665,18.34228,18.34228,0,0,0,.33618,4.613q.21021,2.30676.50464,4.61328c.22632,1.5376.40381,3.07544.67261,4.613a.17059.17059,0,0,0,.33618,0c.26855-1.5376.44629-3.07544.67261-4.613q.29443-2.30676.50464-4.61328a18.34275,18.34275,0,0,0,.33618-4.613,13.18393,13.18393,0,0,0-.49878-2.30665,9.35741,9.35741,0,0,0-1.01465-2.30664.19849.19849,0,0,0-.27344-.06274A.20246.20246,0,0,0,382.8019,72.19788Z"></path><path fill="#c6c6c6" d="M387.9334 83.30305v19.28114l-5.08755-2.34985a8.33316 8.33316 0 01.77443-15.442zM409.92183 109.67148l1.96875-.6836a12.373 12.373 0 008.31452-11.68846v0a12.373 12.373 0 00-8.31452-11.68846l-1.96875-.68359zM398.09717 106.23552l6.28328-2.18169a2 2 0 001.344-1.88935V87.40689a2 2 0 00-1.344-1.88935l-6.28328-2.18169a2 2 0 00-2.656 1.88935v19.121A2 2 0 00398.09717 106.23552zM341.84574 139.80225l-5.638 16.23755a2 2 0 01-1.88935 1.344H302.521a2 2 0 01-1.88935-1.344l-5.638-16.23755a2 2 0 011.88935-2.656h43.07343A2 2 0 01341.84574 139.80225z"></path><path fill="#a0a0a0" d="M299.2597 140.86982a25.26868 25.26868 0 003.299 6.08582 22.091 22.091 0 004.863 4.785 19.36463 19.36463 0 002.91866 1.77186 22.29415 22.29415 0 003.16528 1.3153 21.65494 21.65494 0 003.34828.83814 24.97863 24.97863 0 003.46569.39245 18.46775 18.46775 0 01-3.52628.094 21.61588 21.61588 0 01-3.50346-.58631 19.18747 19.18747 0 01-11.36049-8.17431 21.44454 21.44454 0 01-1.65711-3.14295A18.30873 18.30873 0 01299.2597 140.86982zM305.36663 138.45271a18.37407 18.37407 0 002.37453 4.6792 15.13293 15.13293 0 003.62312 3.63757 15.297 15.297 0 004.61073 2.25818 18.596 18.596 0 005.193.765 13.27231 13.27231 0 01-14.07929-6.23816A12.66315 12.66315 0 01305.36663 138.45271z"></path><path fill="#d8a935" d="M224.92,161.40455s18.72-19.62,38.16-2.52Z"></path><polygon fill="#c6c6c6" points="261.71 167.951 227.36 167.951 217.36 157.384 271.71 157.384 261.71 167.951"></polygon><path fill="#bababa" d="M255.43968 137.34688a3.41581 3.41581 0 011.45575 1.34179 2.46921 2.46921 0 01.10861 2.03736 8.60312 8.60312 0 01-.97349 1.75793 6.02292 6.02292 0 01-.64249.79309 3.8817 3.8817 0 00-.58249.71387 5.6226 5.6226 0 00-.77426 1.68555 3.82885 3.82885 0 00.02435 1.81811 3.64572 3.64572 0 002.5067 2.61023 3.5237 3.5237 0 01-1.81039-.79248 3.78689 3.78689 0 01-1.115-1.69568 3.84175 3.84175 0 01-.10917-2.05322 6.09183 6.09183 0 01.80163-1.87915 4.44655 4.44655 0 01.67131-.78455 5.47142 5.47142 0 00.60781-.71094 11.53328 11.53328 0 00.99131-1.62133 2.12364 2.12364 0 00.04612-1.76A3.59369 3.59369 0 00255.43968 137.34688zM245.755 125.69478a3.41536 3.41536 0 011.45575 1.34167 2.46916 2.46916 0 01.10862 2.03735 8.60073 8.60073 0 01-.9735 1.75806 6.02131 6.02131 0 01-.64249.79309 3.88186 3.88186 0 00-.58249.71375 5.62561 5.62561 0 00-.77426 1.68554 3.82926 3.82926 0 00.02436 1.81824 3.64589 3.64589 0 002.5067 2.61023 3.52463 3.52463 0 01-1.8104-.79248 3.78706 3.78706 0 01-1.115-1.69568 3.84185 3.84185 0 01-.10917-2.05322 6.09335 6.09335 0 01.80163-1.87927 4.44648 4.44648 0 01.67131-.78443 5.46452 5.46452 0 00.60781-.71106 11.53281 11.53281 0 00.99132-1.62121 2.12395 2.12395 0 00.04611-1.76013A3.59321 3.59321 0 00245.755 125.69478zM235.41 134.49092a3.41536 3.41536 0 011.45575 1.34167 2.46944 2.46944 0 01.10862 2.03748 8.60363 8.60363 0 01-.9735 1.75793 6.02131 6.02131 0 01-.64249.79309 3.88186 3.88186 0 00-.58249.71375 5.6253 5.6253 0 00-.77426 1.68555 3.8292 3.8292 0 00.02436 1.81823 3.64569 3.64569 0 002.50669 2.61023 3.52365 3.52365 0 01-1.81039-.79248 3.787 3.787 0 01-1.115-1.69568 3.84185 3.84185 0 01-.10917-2.05322 6.09345 6.09345 0 01.80163-1.87927 4.44952 4.44952 0 01.67131-.78442 5.46585 5.46585 0 00.60781-.71106 11.53189 11.53189 0 00.99131-1.62122 2.12391 2.12391 0 00.04612-1.76013A3.59321 3.59321 0 00235.41 134.49092z"></path><path fill="#7ca1b1" d="M414.50092,137.04319h52.9553a0,0,0,0,1,0,0v.06867a26.47762,26.47762,0,0,1-26.47762,26.47762h-.00005a26.47762,26.47762,0,0,1-26.47762-26.47762v-.06867A0,0,0,0,1,414.50092,137.04319Z"></path><path fill="#7ca1b1" d="M391.63336,17.34315H413.2932a0,0,0,0,1,0,0v.02809a10.82991,10.82991,0,0,1-10.82991,10.82991h0a10.82991,10.82991,0,0,1-10.82991-10.82991v-.02809A0,0,0,0,1,391.63336,17.34315Z" transform="rotate(12.52 402.463 22.772)"></path><path fill="#f65b2b" d="M393.56794,24.54809h21.65984a0,0,0,0,1,0,0v.02809a10.82991,10.82991,0,0,1-10.82991,10.82991h0a10.82991,10.82991,0,0,1-10.82991-10.82991v-.02809a0,0,0,0,1,0,0Z" transform="rotate(-7.292 404.398 29.977)"></path><polygon fill="#ffba55" points="408.471 43.498 400.577 43.498 401.58 41.143 407.469 41.143 408.471 43.498"></polygon><path fill="#7ca1b1" d="M393.53419,31.0603H415.194a0,0,0,0,1,0,0v.02809A10.82991,10.82991,0,0,1,404.36412,41.9183h0a10.82991,10.82991,0,0,1-10.82991-10.82991V31.0603A0,0,0,0,1,393.53419,31.0603Z"></path><path fill="#7ca1b1" d="M419.93029,10.60638h27.23882a0,0,0,0,1,0,0v.03532a13.6194,13.6194,0,0,1-13.6194,13.6194h0a13.6194,13.6194,0,0,1-13.6194-13.6194v-.03532a0,0,0,0,1,0,0Z" transform="rotate(12.52 433.55 17.434)"></path><path fill="#f65b2b" d="M422.36317,19.66712H449.602a0,0,0,0,1,0,0v.03532a13.6194,13.6194,0,0,1-13.6194,13.6194h0a13.6194,13.6194,0,0,1-13.6194-13.6194v-.03532A0,0,0,0,1,422.36317,19.66712Z" transform="rotate(-7.292 435.983 26.494)"></path><polygon fill="#ffba55" points="441.105 43.498 431.178 43.498 432.439 40.536 439.844 40.536 441.105 43.498"></polygon><path fill="#7ca1b1" d="M422.32072,27.85669h27.23882a0,0,0,0,1,0,0V27.892a13.6194,13.6194,0,0,1-13.6194,13.6194h0a13.6194,13.6194,0,0,1-13.6194-13.6194v-.03532A0,0,0,0,1,422.32072,27.85669Z"></path><path fill="#f65b2b" d="M468.6036,138.02382H413.35348a.98066.98066,0,0,1,0-1.96131H468.6036a.98066.98066,0,0,1,0,1.96131Z"></path><path fill="#fff" d="M417.67823 142.05561a.42322.42322 0 000-.84593.42322.42322 0 000 .84593zM424.73894 141.70258a.42322.42322 0 000-.84593.42322.42322 0 000 .84593zM431.44661 142.05561a.42322.42322 0 000-.84593.42322.42322 0 000 .84593zM437.80125 141.87909a.42322.42322 0 000-.84593.42322.42322 0 000 .84593zM444.3324 141.87909a.42322.42322 0 000-.84593.42322.42322 0 000 .84593zM450.687 141.87909a.42322.42322 0 000-.84593.42322.42322 0 000 .84593zM457.21819 141.87909a.42322.42322 0 000-.84593.42322.42322 0 000 .84593zM463.92586 141.87909a.42322.42322 0 000-.84593.42322.42322 0 000 .84593zM421.3851 145.82132a.42322.42322 0 000-.84593.42322.42322 0 000 .84593zM427.85742 145.70364a.42322.42322 0 000-.84593.42322.42322 0 000 .84593zM434.68277 145.586a.42322.42322 0 000-.84593.42322.42322 0 000 .84593zM440.91973 145.46829a.42322.42322 0 000-.84593.42322.42322 0 000 .84593zM447.27436 145.46829a.42322.42322 0 000-.84593.42322.42322 0 000 .84593zM454.09971 145.46829a.42322.42322 0 000-.84593.42322.42322 0 000 .84593zM460.68971 145.586a.42322.42322 0 000-.84593.42322.42322 0 000 .84593zM424.44474 149.234a.42322.42322 0 000-.84593.42322.42322 0 000 .84593zM431.38777 149.11632a.42322.42322 0 000-.84593.42322.42322 0 000 .84593zM427.9751 152.76435a.42322.42322 0 000-.84593.42322.42322 0 000 .84593zM431.15242 156.76542a.42322.42322 0 000-.84593.42322.42322 0 000 .84593zM434.68277 160.53113a.42322.42322 0 000-.84593.42322.42322 0 000 .84593zM437.86009 156.41238a.42322.42322 0 000-.84593.42322.42322 0 000 .84593zM441.03741 160.29577a.42322.42322 0 000-.84593.42322.42322 0 000 .84593zM444.3324 156.53006a.42322.42322 0 000-.84593.42322.42322 0 000 .84593zM447.74508 160.53113a.42322.42322 0 000-.84593.42322.42322 0 000 .84593zM451.15775 156.41238a.42322.42322 0 000-.84593.42322.42322 0 000 .84593zM454.21739 152.882a.42322.42322 0 000-.84593.42322.42322 0 000 .84593zM457.63007 148.881a.42322.42322 0 000-.84593.42322.42322 0 000 .84593zM450.687 148.76328a.42322.42322 0 000-.84593.42322.42322 0 000 .84593zM447.392 153.23506a.42322.42322 0 000-.84593.42322.42322 0 000 .84593zM444.09705 149.11632a.42322.42322 0 000-.84593.42322.42322 0 000 .84593zM440.91973 152.99971a.42322.42322 0 000-.84593.42322.42322 0 000 .84593zM437.74241 148.881a.42322.42322 0 000-.84593.42322.42322 0 000 .84593zM434.56509 152.64667a.42322.42322 0 000-.84593.42322.42322 0 000 .84593z"></path><path fill="#7ca1b1" d="M384.53068 121.5108H372.56992a1.12573 1.12573 0 01-1.12582-1.12582v-3.313a3.38116 3.38116 0 013.37747-3.37747H382.279a3.38116 3.38116 0 013.37746 3.37747v3.313A1.12573 1.12573 0 01384.53068 121.5108zm-10.83494-2.25164h9.70912v-2.18722a1.12715 1.12715 0 00-1.12582-1.12582h-7.45747a1.12715 1.12715 0 00-1.12583 1.12582zM408.344 132.89194h-59.9298a1.46357 1.46357 0 010-2.92714H408.344a1.46357 1.46357 0 010 2.92714z"></path><path fill="#ffba55" d="M398.91416,157.44839H358.22245a2.02647,2.02647,0,0,1-2.02648-2.02648v-29.5866h44.74467v29.5866A2.02648,2.02648,0,0,1,398.91416,157.44839Z"></path><path fill="#e6952a" d="M358.22245,119.48435h40.69171a2.02648,2.02648,0,0,1,2.02648,2.02648v4.32448a0,0,0,0,1,0,0H356.196a0,0,0,0,1,0,0v-4.32448A2.02648,2.02648,0,0,1,358.22245,119.48435Z"></path><path fill="#7ca1b1" d="M361.35737 7.81633H349.39661a1.12574 1.12574 0 01-1.12583-1.12582v-3.313A3.38116 3.38116 0 01351.64825 0h7.45747a3.38116 3.38116 0 013.37747 3.37747v3.313A1.12573 1.12573 0 01361.35737 7.81633zM350.52243 5.56468h9.70911V3.37747a1.12715 1.12715 0 00-1.12582-1.12583h-7.45747a1.12715 1.12715 0 00-1.12582 1.12583zM385.1707 19.19746H325.24091a1.46357 1.46357 0 110-2.92713H385.1707a1.46357 1.46357 0 110 2.92713z"></path><path fill="#ffba55" d="M375.74084,43.75392H335.04913a2.02648,2.02648,0,0,1-2.02648-2.02648V12.14084h44.74467v29.5866A2.02647,2.02647,0,0,1,375.74084,43.75392Z"></path><path fill="#e6952a" d="M335.04913,5.78988h40.69171a2.02648,2.02648,0,0,1,2.02648,2.02648v4.32448a0,0,0,0,1,0,0H333.02265a0,0,0,0,1,0,0V7.81636A2.02648,2.02648,0,0,1,335.04913,5.78988Z"></path><path fill="#935b50" d="M333.77734 47.93626h6.03549a0 0 0 010 0V63.01851a1.25912 1.25912 0 01-1.25912 1.25912h-3.51725a1.25912 1.25912 0 01-1.25912-1.25912V47.93626A0 0 0 01333.77734 47.93626zM434.59583 47.93626h6.03549a0 0 0 010 0V63.01851a1.25912 1.25912 0 01-1.25912 1.25912H435.855a1.25912 1.25912 0 01-1.25912-1.25912V47.93626A0 0 0 01434.59583 47.93626z"></path><path fill="#d6694b" d="M456.57289,49.53861H322.92409a1.49361,1.49361,0,0,1-1.35327-1.6021c0-.88475.60593-3.995,1.35327-3.995h133.6488c.74734,0,1.35327,3.11021,1.35327,3.995A1.49361,1.49361,0,0,1,456.57289,49.53861Z"></path><line x1="1" x2="501" y1="314.928" y2="314.928" fill="none" stroke="#935b50" stroke-linecap="round" stroke-linejoin="round" stroke-width="2"></line></g></g></svg>