<?xml version="1.0" encoding="iso-8859-1"?>
<!-- Uploaded to: SVG Repo, www.svgrepo.com, Generator: SVG Repo Mixer Tools -->
<!DOCTYPE svg PUBLIC "-//W3C//DTD SVG 1.1//EN" "http://www.w3.org/Graphics/SVG/1.1/DTD/svg11.dtd">
<svg version="1.1" id="Capa_1" xmlns="http://www.w3.org/2000/svg" xmlns:xlink="http://www.w3.org/1999/xlink" 
	 viewBox="0 0 364.504 364.504" xml:space="preserve">
<g>
	<rect x="100.201" y="338.872" style="fill:#EF8829;" width="73" height="10"/>
	<path style="fill:#EF8829;" d="M25.83,237.872c1.254,26,9.204,49.484,22.684,67.29c9.648,9.118,21.161,15.71,34.368,20.71h96.286
		c37.122-13,61.095-47,66.588-88H25.83z M82.121,303.63c-1.422,2.3-3.884,3.565-6.403,3.565c-1.348,0-2.713-0.363-3.946-1.123
		c-20.159-12.461-34.048-32.402-40.165-57.67c-0.977-4.036,1.503-8.097,5.538-9.074c4.034-0.98,8.098,1.502,9.075,5.537
		c5.165,21.34,16.735,38.082,33.457,48.418C83.209,295.465,84.303,300.098,82.121,303.63z"/>
	<path style="fill:#EF8829;" d="M245.955,235.824c0.105-0.898,0.203-1.798,0.293-2.705
		C246.157,234.024,246.061,234.927,245.955,235.824z"/>
	<path style="fill:#3F2D20;" d="M79.677,293.283c-16.723-10.336-28.292-27.078-33.457-48.418c-0.977-4.035-5.041-6.517-9.075-5.537
		c-4.034,0.977-6.515,5.039-5.538,9.074c6.117,25.267,20.007,45.209,40.166,57.669c1.233,0.76,2.598,1.124,3.946,1.124
		c2.518,0,4.98-1.265,6.402-3.566C84.303,300.098,83.209,295.465,79.677,293.283z"/>
	<path style="fill:#3F2D20;" d="M364.294,70.629c-0.969-4.037-5.025-6.515-9.064-5.555l-179.657,43.13V86.104L339,16.117
		c3.817-1.635,5.585-6.053,3.951-9.869c-1.634-3.817-6.053-5.587-9.869-3.951l-157.928,67.63c-1.019-2.943-3.808-5.06-7.098-5.06
		c-4.152,0-7.517,3.365-7.517,7.517v3.803l-4.561,1.953c-0.63-3.513-3.696-6.18-7.391-6.18c-4.151,0-7.517,3.365-7.517,7.517v5.048
		l-4.553,1.95c-0.613-3.535-3.688-6.227-7.399-6.227c-4.152,0-7.517,3.365-7.517,7.517v5.098l-4.507,1.93
		c-0.484-3.685-3.628-6.532-7.446-6.532c-4.151,0-7.517,3.365-7.517,7.517v5.422l-4.641,1.988c-0.779-3.32-3.753-5.794-7.31-5.794
		c-4.152,0-7.517,3.365-7.517,7.517v4.626l-20.827,8.919c-3.816,1.635-5.585,6.053-3.95,9.869c1.22,2.852,3.995,4.56,6.913,4.56
		c0.988,0,1.991-0.196,2.956-0.609l14.908-6.384v4.619l-14.352,3.445c-4.037,0.969-6.524,5.027-5.555,9.065
		c0.828,3.447,3.907,5.764,7.304,5.764c0.58,0,1.171-0.068,1.761-0.209l10.842-2.603v64.431H7.517c-4.151,0-7.517,3.365-7.517,7.517
		c0,28.289,6.908,54.366,19.977,75.411c12.947,20.854,31.783,36.401,54.673,45.199v16.768c0,4.152,3.365,7.517,7.517,7.517h97.717
		c4.151,0,7.517-3.365,7.517-7.517V338.53c22.89-8.798,41.724-24.345,54.673-45.199c13.068-21.045,19.975-47.122,19.975-75.411
		c0-4.152-3.365-7.517-7.517-7.517H117.165v-72.714l4.732-1.135c0.898,3.145,3.788,5.448,7.221,5.448
		c4.152,0,7.517-3.365,7.517-7.517v-1.469l4.481-1.077c0.407,3.768,3.595,6.703,7.471,6.703c4.151,0,7.517-3.365,7.517-7.517v-2.784
		l4.435-1.065v14.363c0,4.152,3.365,7.517,7.517,7.517c4.152,0,7.517-3.365,7.517-7.517v-17.971l183.167-43.973
		C362.777,78.725,365.263,74.667,364.294,70.629z M172.367,347.782H89.685v-7.207h82.682V347.782z M82.882,325.541
		c-40.459-14.186-65.364-51.227-67.671-100.103h231.63c-2.307,48.876-27.213,85.917-67.673,100.103H82.882z M97.697,119.453
		l4.434-1.899v8.282l-4.434,1.065V119.453z M97.697,142.363l4.434-1.065v69.105h-4.434V142.363z M121.601,121.162l-4.436,1.065
		v-11.111l4.436-1.899V121.162z M141.07,116.489l-4.435,1.065v-14.775l4.435-1.9V116.489z M160.539,111.815l-4.435,1.065V94.441
		l4.435-1.9V111.815z"/>
</g>
</svg>